<svg class="svg-icon" style="width: 1em; height: 1em;vertical-align: middle;fill: currentColor;overflow: hidden;" viewBox="0 0 1024 1024" version="1.1" xmlns="http://www.w3.org/2000/svg"><path d="M543.7536 771.968a128 128 0 1 1-63.488 0A32.32 32.32 0 0 1 480.0096 768c0-75.648-51.392-140.16-180.672-249.6-96.256-81.408-102.528-86.912-132.416-118.912C120.5856 349.76 96.0096 304.256 96.0096 256c0-1.344 0.064-2.688 0.256-3.968a128 128 0 1 1 63.488 0c0.192 1.28 0.256 2.624 0.256 3.968 0 28.672 17.408 60.8 53.76 99.84 27.264 29.248 33.6 34.816 126.912 113.728 60.992 51.648 106.816 94.72 139.328 135.04V256c0-1.344 0.064-2.688 0.256-3.968a128 128 0 1 1 63.488 0c0.192 1.28 0.256 2.624 0.256 3.968v348.608c32.512-40.32 78.336-83.392 139.328-135.04 93.312-78.912 99.648-84.48 126.912-113.728 36.352-39.04 53.76-71.168 53.76-99.84 0-1.344 0.064-2.688 0.256-3.968a128 128 0 1 1 63.488 0c0.192 1.28 0.256 2.624 0.256 3.968 0 48.256-24.576 93.76-70.912 143.488-29.888 32-36.16 37.504-132.416 118.976C595.4016 627.84 544.0096 692.352 544.0096 768a32.32 32.32 0 0 1-0.256 3.968zM512.0096 192a64 64 0 1 0 0-128 64 64 0 0 0 0 128zM128.0096 192a64 64 0 1 0 0-128 64 64 0 0 0 0 128z m768 0a64 64 0 1 0 0-128 64 64 0 0 0 0 128zM512.0096 960a64 64 0 1 0 0-128 64 64 0 0 0 0 128z"  /></svg>