<svg class="svg-icon" style="width: 1em; height: 1em;vertical-align: middle;fill: currentColor;overflow: hidden;" viewBox="0 0 1024 1024" version="1.1" xmlns="http://www.w3.org/2000/svg"><path d="M408.416717 673.674547a32.371375 32.371375 0 0 1-1.919251 2.111177l-163.648177 163.584202a127.950099 127.950099 0 1 1-41.839683-48.621038l160.0016-160.001599A191.093474 191.093474 0 0 1 319.875249 511.945621c0-41.455832 13.114885-79.840862 35.506152-111.188636L192.94875 238.324334a127.950099 127.950099 0 1 1 45.23036-45.230361l162.432651 162.432652C431.959536 333.135357 470.344566 320.020472 511.800398 320.020472c41.455832 0 79.840862 13.114885 111.188636 35.506153l162.432652-162.432652a127.950099 127.950099 0 1 1 45.23036 45.230361l-162.432652 162.432651c22.391267 31.347774 35.506153 69.732804 35.506153 111.188636 0 44.84651-15.354012 86.110417-41.135957 118.801668l159.937624 159.937624a127.950099 127.950099 0 1 1-41.839682 48.621038l-163.584202-163.520227a32.371375 32.371375 0 0 1-1.919252-2.111177A191.029498 191.029498 0 0 1 511.800398 703.87077c-38.065155 0-73.571307-11.067684-103.383681-30.196223z m8.124832-247.135617a127.950099 127.950099 0 1 0 190.517698 0 32.115475 32.115475 0 0 1-9.852158-9.852158A127.502274 127.502274 0 0 0 511.800398 383.995522c-32.819201 0-62.759524 12.347185-85.406692 32.69125a32.115475 32.115475 0 0 1-9.852157 9.852158zM127.950099 192.070373a63.97505 63.97505 0 1 0 0-127.9501 63.97505 63.97505 0 0 0 0 127.9501z m767.700597 0a63.97505 63.97505 0 1 0 0-127.9501 63.97505 63.97505 0 0 0 0 127.9501zM127.950099 959.770969a63.97505 63.97505 0 1 0 0-127.950099 63.97505 63.97505 0 0 0 0 127.950099z m767.700597 0a63.97505 63.97505 0 1 0 0-127.950099 63.97505 63.97505 0 0 0 0 127.950099z"  /></svg>