<?xml version="1.0" standalone="no"?>
<!DOCTYPE svg PUBLIC "-//W3C//DTD SVG 20010904//EN"
 "http://www.w3.org/TR/2001/REC-SVG-20010904/DTD/svg10.dtd">
<svg version="1.0" xmlns="http://www.w3.org/2000/svg"
 width="96.000000pt" height="96.000000pt" viewBox="0 0 96.000000 96.000000"
 preserveAspectRatio="xMidYMid meet">

<g transform="translate(0.000000,96.000000) scale(0.100000,-0.100000)"
fill="#2c7be5" stroke="none" color="#110011">
<path d="M445 948 c-30 -18 -44 -40 -45 -73 -1 -27 -10 -35 -93 -83 -84 -49
-95 -53 -123 -43 -44 16 -60 14 -90 -13 -21 -17 -28 -33 -28 -59 0 -37 26 -77
51 -77 10 0 13 -26 13 -120 0 -94 -3 -120 -13 -120 -25 0 -51 -40 -51 -77 0
-26 7 -42 28 -59 30 -27 46 -29 90 -13 28 10 39 6 123 -43 83 -48 92 -56 93
-83 1 -35 15 -56 48 -74 48 -26 112 17 112 74 0 29 7 35 96 88 89 52 99 55
118 42 50 -35 120 5 120 68 0 37 -26 77 -51 77 -10 0 -13 26 -13 120 0 94 3
120 13 120 25 0 51 40 51 77 0 62 -70 103 -119 69 -18 -12 -30 -8 -117 43 -89
51 -98 59 -98 86 -1 34 -15 56 -47 73 -27 15 -42 15 -68 0z m-35 -160 c-7 -12
-65 -115 -129 -228 l-116 -205 -3 120 c-1 66 1 121 6 123 27 9 45 33 51 67 6
37 12 43 101 96 52 31 96 55 98 53 2 -1 -2 -13 -8 -26z m331 -123 c6 -34 24
-58 51 -67 5 -2 7 -57 6 -123 l-3 -120 -122 215 c-67 118 -125 223 -129 233
-4 12 26 -2 92 -41 93 -55 99 -61 105 -97z m-108 -96 c112 -197 125 -223 115
-245 l-11 -24 -257 0 -257 0 -11 24 c-9 21 4 48 115 245 116 205 127 221 153
221 26 0 37 -16 153 -221z m100 -306 c4 -4 -36 -32 -90 -64 -97 -57 -97 -57
-130 -41 -29 14 -36 14 -65 1 -31 -15 -33 -15 -125 39 -51 30 -93 58 -93 63 0
10 493 13 503 2z"/>
</g>
</svg>
